<svg xmlns="http://www.w3.org/2000/svg" width="512" height="96" viewBox="0 0 512 96">
  <defs>
    <filter id="shadow" x="-20%" y="-20%" width="140%" height="160%"><feDropShadow dx="0" dy="4" stdDeviation="3" flood-color="#001014" flood-opacity=".35"/></filter>
    <linearGradient id="glass" x1="0" y1="0" x2="1" y2="1"><stop offset="0" stop-color="#c9f5f5" stop-opacity=".75"/><stop offset="1" stop-color="#5fbac7" stop-opacity=".35"/></linearGradient>
  </defs>
  <!-- reception desk -->
  <g transform="translate(0 0)" filter="url(#shadow)"><polygon points="8,60 32,48 56,60 32,72" fill="#263d47"/><polygon points="8,60 8,42 32,30 32,48" fill="#1c2e36"/><polygon points="32,48 32,30 56,42 56,60" fill="#33545f"/><rect x="22" y="31" width="20" height="5" rx="2" fill="#8ce4dc"/><rect x="14" y="47" width="10" height="4" rx="2" fill="#92aeb8"/></g>
  <!-- workstation -->
  <g transform="translate(64 0)" filter="url(#shadow)"><polygon points="6,64 32,51 58,64 32,77" fill="#7d6551"/><polygon points="10,57 32,46 54,57 32,68" fill="#9e8268"/><polygon points="25,34 38,27 49,34 36,41" fill="#14262f"/><polygon points="25,34 25,25 36,19 36,28" fill="#1a3743"/><polygon points="36,28 36,19 49,25 49,34" fill="#275463"/><rect x="31" y="26" width="9" height="3" fill="#6be3e0"/></g>
  <!-- plant -->
  <g transform="translate(128 0)" filter="url(#shadow)"><ellipse cx="32" cy="70" rx="14" ry="7" fill="#20353a"/><path d="M32 64c-8-10-16-16-12-25 8 1 13 8 12 19-1-17 7-27 16-29 4 10-3 21-14 32 10-10 20-11 24-3-4 10-13 11-26 6z" fill="#4cb68d"/><path d="M32 61c4-13 0-23-5-30-6 7-7 17 5 30z" fill="#74d6a7"/><polygon points="22,58 42,58 38,72 26,72" fill="#b47a52"/></g>
  <!-- secure door -->
  <g transform="translate(192 0)" filter="url(#shadow)"><polygon points="13,72 32,62 51,72 32,82" fill="#13262d"/><polygon points="18,64 18,23 40,11 40,53" fill="#17343e"/><polygon points="40,53 40,11 51,17 51,58" fill="#0b1e25"/><polygon points="22,58 22,27 37,19 37,50" fill="#2f6c78"/><rect x="42" y="34" width="7" height="13" rx="2" fill="#0e191e"/><circle cx="45.5" cy="38" r="2" fill="#55e2d5"/><rect x="25" y="31" width="9" height="3" fill="#8ff8ed" opacity=".65"/></g>
  <!-- server rack -->
  <g transform="translate(256 0)" filter="url(#shadow)"><polygon points="15,70 32,61 49,70 32,79" fill="#0d1f26"/><polygon points="17,63 17,22 33,13 33,54" fill="#162b34"/><polygon points="33,54 33,13 49,22 49,63" fill="#243b44"/><g fill="#55d9d1"><rect x="21" y="29" width="8" height="2"/><rect x="21" y="37" width="8" height="2"/><rect x="21" y="45" width="8" height="2"/></g><g fill="#e3a84f"><circle cx="43" cy="30" r="1.5"/><circle cx="43" cy="38" r="1.5"/><circle cx="43" cy="46" r="1.5"/></g></g>
  <!-- glass wall -->
  <g transform="translate(320 0)" filter="url(#shadow)"><polygon points="5,71 32,57 59,71 32,85" fill="#122b33"/><polygon points="8,63 8,31 32,18 32,50" fill="url(#glass)" stroke="#76ced2" stroke-opacity=".6"/><polygon points="32,50 32,18 56,31 56,63" fill="#78cbd0" fill-opacity=".18" stroke="#76ced2" stroke-opacity=".6"/><path d="M32 18v32" stroke="#d8ffff" stroke-opacity=".45"/></g>
  <!-- sofa -->
  <g transform="translate(384 0)" filter="url(#shadow)"><polygon points="8,66 32,54 56,66 32,78" fill="#17353d"/><polygon points="10,59 10,48 32,37 32,48" fill="#2f6a71"/><polygon points="32,48 32,37 54,48 54,59" fill="#285760"/><polygon points="14,49 32,40 50,49 32,58" fill="#4f8790"/></g>
  <!-- floor sign -->
  <g transform="translate(448 0)" filter="url(#shadow)"><polygon points="21,73 32,68 43,73 32,79" fill="#1b2d33"/><polygon points="28,67 30,39 38,35 36,63" fill="#e7b24a"/><polygon points="30,39 38,35 45,39 37,44" fill="#f1ca6a"/><path d="M32 43l4-2 3 2-4 2z" fill="#5e4825"/></g>
</svg>