<svg xmlns="http://www.w3.org/2000/svg" width="144" height="192" viewBox="0 0 144 192">
<defs>
 <filter id="s" x="-30%" y="-30%" width="160%" height="170%"><feDropShadow dx="0" dy="2" stdDeviation="1.2" flood-color="#001018" flood-opacity=".5"/></filter>
 <linearGradient id="u" x1="0" y1="0" x2="1" y2="1"><stop stop-color="#4e9476"/><stop offset="1" stop-color="#2e5d4d"/></linearGradient>
 <g id="p" filter="url(#s)">
  <ellipse cx="24" cy="43" rx="12" ry="4" fill="#07151c" opacity=".42"/>
  <path d="M16 15c1-8 15-10 19-1l-2 8H16z" fill="#29211f"/>
  <circle cx="24" cy="18" r="8.4" fill="#e9ba94"/>
  <path d="M15 15q8-8 18-2l2 5q-9-4-19 1z" fill="#322623"/>
  <path d="M32 13q6 3 4 10" fill="none" stroke="#322623" stroke-width="3"/>
  <circle cx="21" cy="18" r="1" fill="#1e2b31"/><circle cx="27" cy="18" r="1" fill="#1e2b31"/>
  <path d="M22 22q2 1 4 0" fill="none" stroke="#a56e5b" stroke-width="1"/>
  <path d="M15 27h18l4 13H11z" fill="url(#u)"/>
  <path d="M17 29h14" stroke="#77c6a4" stroke-width="2"/>
  <rect x="20" y="27" width="8" height="10" rx="1.5" fill="#f1fbf7"/><rect x="22" y="29" width="4" height="2" rx="1" fill="#54bca2"/>
  <path d="M11 31l-4 8 4 2 5-9M37 31l4 8-4 2-5-9" fill="#dfad88"/>
  <path d="M14 39h8l-1 7h-9zm12 0h8l2 7h-9z" fill="#26352f"/>
  <rect x="12" y="45" width="10" height="3" rx="1.5" fill="#111b17"/><rect x="27" y="45" width="10" height="3" rx="1.5" fill="#111b17"/>
 </g>
</defs>
<g><use href="#p"/><use href="#p" x="48"/><use href="#p" x="96"/><use href="#p" y="48"/><use href="#p" x="48" y="48"/><use href="#p" x="96" y="48"/><use href="#p" y="96"/><use href="#p" x="48" y="96"/><use href="#p" x="96" y="96"/><use href="#p" y="144"/><use href="#p" x="48" y="144"/><use href="#p" x="96" y="144"/></g>
</svg>
